<?xml version="1.0" encoding="UTF-8"?>
<svg xmlns="http://www.w3.org/2000/svg" xmlns:xlink="http://www.w3.org/1999/xlink" width="1108px" height="600px" viewBox="0 0 1108 600" version="1.1">
<g id="surface1">
<path style=" stroke:none;fill-rule:nonzero;fill:rgb(94.117647%,94.117647%,94.117647%);fill-opacity:1;" d="M 364.886719 600 C 331.453125 600 298.070312 599.355469 264.738281 598.058594 C 217.109375 596.210938 167.859375 594.300781 122.082031 566.875 C 90.058594 547.691406 61.695312 516.914062 40.066406 477.863281 C 25.605469 451.398438 15.003906 422.683594 8.632812 392.734375 C -3.253906 338.203125 -2.851562 281.386719 9.8125 227.0625 C 14.25 208.4375 20.367188 190.324219 28.078125 172.988281 C 61.460938 98.3125 122.347656 48.183594 195.128906 35.457031 C 195.730469 35.375 196.339844 35.359375 196.941406 35.417969 C 197.269531 35.433594 197.597656 35.457031 197.929688 35.441406 L 198.355469 35.292969 C 199.453125 34.882812 200.582031 34.570312 201.726562 34.359375 C 313.976562 16.308594 432.640625 52.832031 544.878906 139.980469 C 631.664062 207.371094 746.675781 243.660156 896.496094 250.921875 L 898.621094 251.042969 C 940.328125 253.628906 980.664062 272.203125 1015.289062 304.757812 C 1049.460938 336.886719 1075.117188 379.757812 1089.484375 428.730469 C 1091.253906 434.699219 1092.867188 440.917969 1094.296875 447.203125 C 1095.628906 453.042969 1095.535156 459.15625 1094.027344 464.949219 C 1092.519531 470.738281 1089.648438 476.011719 1085.699219 480.25 L 1085.699219 480.261719 L 1085.324219 480.675781 C 1084.429688 481.640625 1083.476562 482.566406 1082.519531 483.425781 L 1081.375 484.4375 C 1071.804688 492.957031 1064.246094 499.6875 1055.1875 504.914062 C 1049.15625 508.378906 1042.742188 510.996094 1036.089844 512.707031 C 999.578125 522.320312 962.503906 531.234375 925.890625 539.203125 C 854.792969 554.6875 781.816406 567.464844 708.996094 577.171875 C 594.832031 592.378906 479.914062 600 364.886719 600 Z M 196.089844 38.0625 C 195.867188 38.058594 195.644531 38.074219 195.421875 38.109375 C 123.320312 50.71875 63.007812 100.351562 29.957031 174.289062 C 22.324219 191.453125 16.265625 209.386719 11.875 227.828125 C -0.671875 281.671875 -1.074219 337.984375 10.707031 392.03125 C 17.019531 421.695312 27.515625 450.132812 41.835938 476.347656 C 63.257812 515.011719 91.328125 545.480469 123.015625 564.464844 C 168.382812 591.644531 217.398438 593.546875 264.804688 595.382812 C 413.070312 601.105469 561.523438 594.125 708.769531 574.511719 C 781.539062 564.808594 854.46875 552.042969 925.523438 536.566406 C 962.113281 528.601562 999.160156 519.695312 1035.644531 510.085938 C 1042.128906 508.417969 1048.398438 505.863281 1054.28125 502.484375 C 1063.15625 497.363281 1070.644531 490.699219 1080.128906 482.261719 L 1081.261719 481.25 C 1082.089844 480.507812 1082.910156 479.714844 1083.6875 478.894531 L 1083.914062 478.640625 C 1091.707031 470.15625 1094.730469 458.960938 1092.230469 447.929688 C 1090.816406 441.710938 1089.214844 435.5625 1087.460938 429.652344 C 1058.109375 329.609375 982.179688 258.90625 898.515625 253.71875 L 896.398438 253.597656 C 827.96875 250.28125 768.082031 241.089844 713.332031 225.503906 C 647.972656 206.894531 590.914062 178.882812 543.742188 142.25 C 431.925781 55.4375 313.761719 19.046875 202.003906 37.011719 C 200.957031 37.207031 199.929688 37.496094 198.929688 37.875 L 198.160156 38.105469 C 197.722656 38.128906 197.28125 38.121094 196.84375 38.089844 C 196.585938 38.074219 196.335938 38.0625 196.089844 38.0625 Z M 196.089844 38.0625 "/>
<path style=" stroke:none;fill-rule:nonzero;fill:rgb(18.431373%,18.039216%,25.490198%);fill-opacity:1;" d="M 346.09375 195.488281 C 343 192.28125 339.832031 174.390625 335.882812 172.574219 C 338.835938 179.625 336.691406 181.492188 336.675781 189.234375 C 336.710938 193.628906 336.238281 198.007812 335.261719 202.277344 L 268.324219 202.277344 L 268.324219 145.84375 C 268.324219 140.773438 269.246094 135.753906 271.042969 131.070312 C 272.839844 126.382812 275.472656 122.128906 278.792969 118.542969 C 282.109375 114.957031 286.050781 112.113281 290.386719 110.171875 C 294.722656 108.230469 299.371094 107.234375 304.066406 107.234375 C 305.859375 107.273438 307.636719 107.554688 309.363281 108.070312 C 315.117188 109.75 320.363281 113.03125 324.570312 117.589844 C 328.777344 122.148438 331.804688 127.824219 333.339844 134.042969 C 338.441406 154.191406 346.558594 187.730469 346.09375 195.488281 Z M 346.09375 195.488281 "/>
<path style=" stroke:none;fill-rule:nonzero;fill:rgb(100%,71.372551%,71.372551%);fill-opacity:1;" d="M 272.25 264.90625 L 272.285156 220.921875 L 248.347656 223.234375 L 256.796875 250.976562 L 252.84375 320.703125 C 250.925781 321.167969 249.175781 322.226562 247.804688 323.746094 C 246.433594 325.265625 245.5 327.1875 245.125 329.269531 C 244.746094 331.351562 244.9375 333.507812 245.671875 335.476562 C 246.410156 337.445312 247.660156 339.140625 249.273438 340.351562 C 250.886719 341.566406 252.789062 342.246094 254.753906 342.308594 C 256.71875 342.375 258.65625 341.820312 260.335938 340.714844 C 262.011719 339.609375 263.355469 338 264.199219 336.082031 C 265.046875 334.167969 265.359375 332.027344 265.097656 329.921875 Z M 272.25 264.90625 "/>
<path style=" stroke:none;fill-rule:nonzero;fill:rgb(100%,71.372551%,71.372551%);fill-opacity:1;" d="M 319.355469 579.222656 L 329.023438 579.222656 L 333.625 538.933594 L 319.351562 538.933594 Z M 319.355469 579.222656 "/>
<path style=" stroke:none;fill-rule:nonzero;fill:rgb(18.431373%,18.039216%,25.490198%);fill-opacity:1;" d="M 316.078125 574.070312 L 331.363281 573.085938 L 331.363281 580.160156 L 345.898438 591.003906 C 346.617188 591.539062 347.15625 592.308594 347.441406 593.199219 C 347.726562 594.089844 347.738281 595.054688 347.480469 595.953125 C 347.21875 596.851562 346.699219 597.640625 346 598.199219 C 345.296875 598.757812 344.445312 599.058594 343.574219 599.058594 L 325.375 599.058594 L 322.238281 592.058594 L 321.015625 599.058594 L 314.152344 599.058594 Z M 316.078125 574.070312 "/>
<path style=" stroke:none;fill-rule:nonzero;fill:rgb(100%,71.372551%,71.372551%);fill-opacity:1;" d="M 263.441406 579.222656 L 273.113281 579.222656 L 277.710938 538.933594 L 263.441406 538.933594 Z M 263.441406 579.222656 "/>
<path style=" stroke:none;fill-rule:nonzero;fill:rgb(18.431373%,18.039216%,25.490198%);fill-opacity:1;" d="M 260.167969 574.070312 L 275.453125 573.085938 L 275.453125 580.160156 L 289.988281 591.003906 C 290.703125 591.539062 291.246094 592.308594 291.53125 593.199219 C 291.8125 594.089844 291.828125 595.054688 291.566406 595.953125 C 291.308594 596.851562 290.789062 597.640625 290.085938 598.199219 C 289.382812 598.757812 288.535156 599.058594 287.664062 599.058594 L 269.464844 599.058594 L 266.328125 592.058594 L 265.101562 599.058594 L 258.242188 599.058594 Z M 260.167969 574.070312 "/>
<path style=" stroke:none;fill-rule:nonzero;fill:rgb(90.196079%,90.196079%,90.196079%);fill-opacity:1;" d="M 310.742188 173.421875 L 290.710938 173.847656 L 276.570312 189.972656 L 265.234375 191.765625 C 260.105469 192.578125 255.394531 195.269531 251.878906 199.386719 C 248.367188 203.503906 246.269531 208.796875 245.933594 214.382812 L 247.898438 226.035156 L 259.683594 226.035156 L 266.5 269.273438 C 263.847656 276.566406 263.667969 282.328125 269.109375 284.589844 L 286 318.957031 L 335.882812 294.773438 C 338.410156 290.074219 339.222656 285.355469 336.636719 280.765625 L 340.203125 214.582031 L 352.191406 214.582031 C 352.191406 202.203125 348.316406 191.765625 336.929688 190.386719 C 332.40625 189.859375 327.863281 189.578125 323.3125 189.546875 Z M 310.742188 173.421875 "/>
<path style=" stroke:none;fill-rule:nonzero;fill:rgb(18.431373%,18.039216%,25.490198%);fill-opacity:1;" d="M 335.882812 294.773438 C 335.882812 294.773438 287.175781 304.105469 269.109375 284.589844 C 269.109375 284.589844 267.273438 287.953125 264.511719 293.53125 C 263.714844 295.136719 262.179688 296.222656 261.253906 298.167969 C 260.410156 299.933594 258.242188 302.105469 257.324219 304.109375 C 256.585938 305.71875 257.773438 307.824219 257.003906 309.566406 C 247.75 330.53125 236.941406 360.105469 239.257812 379.628906 C 240.753906 392.222656 243.839844 421.527344 247.089844 453 C 247.34375 455.457031 245.285156 458.617188 245.542969 461.09375 C 245.78125 463.433594 248.335938 465.089844 248.578125 467.433594 C 248.738281 468.988281 246.953125 470.574219 247.113281 472.128906 C 247.289062 473.832031 249.40625 475.503906 249.578125 477.199219 C 254.035156 520.65625 258.109375 561.230469 258.109375 561.230469 L 280.890625 561.230469 L 285.191406 468.566406 L 281.679688 434.789062 L 289.925781 366.476562 L 301.316406 431.394531 L 302.78125 467.929688 L 314.820312 562.925781 L 335.882812 562.925781 L 335.882812 470.964844 L 337.453125 466.1875 L 335.882812 460.058594 L 337.453125 453.457031 L 335.882812 446.269531 Z M 335.882812 294.773438 "/>
<path style=" stroke:none;fill-rule:nonzero;fill:rgb(100%,71.372551%,71.372551%);fill-opacity:1;" d="M 316.890625 160.875 C 313.789062 165.328125 309.375 168.507812 304.375 169.886719 C 299.378906 171.269531 294.09375 170.769531 289.390625 168.472656 C 284.691406 166.175781 280.855469 162.214844 278.515625 157.246094 C 276.175781 152.28125 275.46875 146.601562 276.519531 141.144531 C 277.566406 135.6875 280.300781 130.777344 284.277344 127.222656 C 288.253906 123.671875 293.230469 121.6875 298.386719 121.597656 C 303.546875 121.507812 308.582031 123.320312 312.660156 126.734375 C 316.738281 130.148438 319.617188 134.960938 320.824219 140.378906 C 320.890625 140.671875 320.945312 140.964844 321 141.269531 C 321.636719 144.664062 321.601562 148.167969 320.894531 151.546875 C 320.1875 154.925781 318.820312 158.105469 316.890625 160.875 Z M 316.890625 160.875 "/>
<path style=" stroke:none;fill-rule:nonzero;fill:rgb(18.431373%,18.039216%,25.490198%);fill-opacity:1;" d="M 312.15625 146.878906 C 311.675781 144.269531 310.457031 141.882812 308.671875 140.046875 C 308.847656 142.550781 308.523438 145.066406 307.726562 147.421875 C 301.753906 147.996094 295.757812 146.710938 290.4375 143.722656 C 286.429688 140.789062 281.332031 141.042969 275.394531 143.722656 C 275.394531 140.601562 275.960938 137.511719 277.066406 134.628906 C 278.171875 131.746094 279.792969 129.128906 281.835938 126.921875 C 283.878906 124.714844 286.300781 122.964844 288.972656 121.769531 C 291.640625 120.578125 294.5 119.960938 297.390625 119.960938 L 301.316406 119.960938 C 307.152344 119.964844 312.746094 122.46875 316.867188 126.921875 C 320.992188 131.378906 323.3125 137.421875 323.3125 143.722656 C 319.6875 145.128906 315.953125 146.183594 312.15625 146.878906 Z M 312.15625 146.878906 "/>
<path style=" stroke:none;fill-rule:nonzero;fill:rgb(94.117647%,94.117647%,94.117647%);fill-opacity:1;" d="M 140.320312 449.714844 C 175.21875 449.714844 203.507812 419.15625 203.507812 381.457031 C 203.507812 343.757812 175.21875 313.195312 140.320312 313.195312 C 105.417969 313.195312 77.128906 343.757812 77.128906 381.457031 C 77.128906 419.15625 105.417969 449.714844 140.320312 449.714844 Z M 140.320312 449.714844 "/>
<path style=" stroke:none;fill-rule:nonzero;fill:rgb(94.117647%,94.117647%,94.117647%);fill-opacity:1;" d="M 1044.804688 460.425781 C 1079.710938 460.425781 1108 429.863281 1108 392.164062 C 1108 354.464844 1079.710938 323.902344 1044.804688 323.902344 C 1009.910156 323.902344 981.621094 354.464844 981.621094 392.164062 C 981.621094 429.863281 1009.910156 460.425781 1044.804688 460.425781 Z M 1044.804688 460.425781 "/>
<path style=" stroke:none;fill-rule:nonzero;fill:rgb(24.705882%,23.921569%,33.725491%);fill-opacity:1;" d="M 607.503906 51.917969 C 607.503906 51.496094 607.660156 51.089844 607.9375 50.789062 C 608.214844 50.488281 608.59375 50.320312 608.984375 50.320312 L 619.058594 50.320312 C 619.449219 50.320312 619.828125 50.488281 620.101562 50.789062 C 620.378906 51.089844 620.535156 51.496094 620.535156 51.917969 C 620.535156 52.34375 620.378906 52.75 620.101562 53.050781 C 619.828125 53.347656 619.449219 53.519531 619.058594 53.519531 L 608.984375 53.519531 C 608.59375 53.519531 608.214844 53.351562 607.9375 53.050781 C 607.660156 52.75 607.503906 52.34375 607.503906 51.917969 Z M 607.503906 51.917969 "/>
<path style=" stroke:none;fill-rule:nonzero;fill:rgb(24.705882%,23.921569%,33.725491%);fill-opacity:1;" d="M 624.6875 53.519531 C 625.503906 53.519531 626.167969 52.804688 626.167969 51.917969 C 626.167969 51.035156 625.503906 50.320312 624.6875 50.320312 C 623.871094 50.320312 623.207031 51.035156 623.207031 51.917969 C 623.207031 52.804688 623.871094 53.519531 624.6875 53.519531 Z M 624.6875 53.519531 "/>
<path style=" stroke:none;fill-rule:nonzero;fill:rgb(100%,100%,100%);fill-opacity:1;" d="M 302.421875 361.917969 L 136.65625 361.917969 C 134.300781 361.914062 132.046875 360.898438 130.382812 359.101562 C 128.71875 357.304688 127.777344 354.867188 127.773438 352.324219 L 127.773438 265.070312 C 127.777344 262.527344 128.714844 260.09375 130.378906 258.292969 C 132.046875 256.496094 134.300781 255.480469 136.65625 255.476562 L 302.421875 255.476562 C 304.773438 255.480469 307.03125 256.496094 308.695312 258.292969 C 310.359375 260.089844 311.296875 262.527344 311.304688 265.070312 L 311.304688 352.320312 C 311.296875 354.863281 310.359375 357.300781 308.695312 359.101562 C 307.03125 360.898438 304.777344 361.910156 302.421875 361.917969 Z M 302.421875 361.917969 "/>
<path style=" stroke:none;fill-rule:nonzero;fill:rgb(24.705882%,23.921569%,33.725491%);fill-opacity:1;" d="M 302.421875 361.917969 L 136.65625 361.917969 C 134.300781 361.914062 132.046875 360.898438 130.382812 359.101562 C 128.71875 357.304688 127.777344 354.867188 127.773438 352.324219 L 127.773438 265.070312 C 127.777344 262.527344 128.714844 260.09375 130.378906 258.292969 C 132.046875 256.496094 134.300781 255.480469 136.65625 255.476562 L 302.421875 255.476562 C 304.773438 255.480469 307.03125 256.496094 308.695312 258.292969 C 310.359375 260.089844 311.296875 262.527344 311.304688 265.070312 L 311.304688 352.320312 C 311.296875 354.863281 310.359375 357.300781 308.695312 359.101562 C 307.03125 360.898438 304.777344 361.910156 302.421875 361.917969 Z M 136.65625 258.152344 C 134.957031 258.15625 133.332031 258.886719 132.132812 260.183594 C 130.929688 261.480469 130.253906 263.238281 130.25 265.074219 L 130.25 352.320312 C 130.253906 354.15625 130.933594 355.914062 132.132812 357.210938 C 133.332031 358.507812 134.960938 359.238281 136.65625 359.242188 L 302.417969 359.242188 C 304.117188 359.238281 305.746094 358.507812 306.945312 357.210938 C 308.144531 355.914062 308.820312 354.15625 308.828125 352.320312 L 308.828125 265.070312 C 308.820312 263.238281 308.144531 261.480469 306.945312 260.183594 C 305.746094 258.886719 304.117188 258.15625 302.417969 258.152344 Z M 136.65625 258.152344 "/>
<path style=" stroke:none;fill-rule:nonzero;fill:rgb(16.862746%,47.058824%,89.411765%);fill-opacity:1;" d="M 228.421875 349.023438 C 195.730469 349.023438 161.640625 348.6875 148.921875 348.46875 C 147.25 348.429688 145.65625 347.6875 144.480469 346.398438 C 143.308594 345.109375 142.648438 343.375 142.640625 341.566406 L 142.640625 269.34375 C 142.640625 268.695312 142.878906 268.074219 143.300781 267.617188 C 143.726562 267.160156 144.300781 266.898438 144.898438 266.898438 L 294.171875 266.898438 C 294.773438 266.898438 295.347656 267.15625 295.769531 267.613281 C 296.195312 268.070312 296.433594 268.6875 296.4375 269.335938 L 296.4375 318.339844 C 296.410156 326.339844 293.480469 334.007812 288.277344 339.699219 C 283.074219 345.394531 276.015625 348.65625 268.613281 348.792969 C 256.757812 348.960938 242.722656 349.023438 228.421875 349.023438 Z M 228.421875 349.023438 "/>
<path style=" stroke:none;fill-rule:nonzero;fill:rgb(24.705882%,23.921569%,33.725491%);fill-opacity:1;" d="M 285.3125 313.839844 L 150.433594 313.839844 C 149.304688 313.835938 148.203125 313.457031 147.277344 312.753906 C 146.355469 312.050781 145.65625 311.058594 145.273438 309.910156 L 130.007812 263.644531 C 129.710938 262.75 129.621094 261.796875 129.738281 260.855469 C 129.859375 259.917969 130.183594 259.023438 130.6875 258.25 C 131.191406 257.476562 131.863281 256.84375 132.640625 256.40625 C 133.417969 255.96875 134.28125 255.738281 135.15625 255.738281 L 303.753906 255.484375 C 304.554688 255.484375 305.347656 255.671875 306.074219 256.039062 C 306.800781 256.402344 307.445312 256.9375 307.960938 257.601562 C 308.476562 258.261719 308.847656 259.039062 309.054688 259.878906 C 309.261719 260.714844 309.296875 261.589844 309.15625 262.441406 L 309.285156 262.5 L 308.800781 263.722656 L 308.796875 263.734375 L 290.34375 310.25 C 289.921875 311.316406 289.222656 312.222656 288.328125 312.863281 C 287.429688 313.5 286.382812 313.839844 285.3125 313.839844 Z M 303.761719 258.160156 L 135.160156 258.414062 C 134.683594 258.414062 134.210938 258.542969 133.78125 258.78125 C 133.355469 259.019531 132.988281 259.367188 132.714844 259.789062 C 132.4375 260.214844 132.257812 260.703125 132.195312 261.21875 C 132.128906 261.734375 132.179688 262.257812 132.339844 262.746094 L 147.605469 309.007812 C 147.816406 309.636719 148.199219 310.183594 148.707031 310.566406 C 149.210938 310.953125 149.816406 311.160156 150.433594 311.160156 L 285.3125 311.160156 C 285.898438 311.160156 286.472656 310.976562 286.960938 310.625 C 287.449219 310.277344 287.835938 309.78125 288.0625 309.199219 L 306.519531 262.679688 C 306.714844 262.183594 306.796875 261.648438 306.75 261.113281 C 306.707031 260.578125 306.542969 260.066406 306.265625 259.617188 C 305.996094 259.171875 305.621094 258.800781 305.1875 258.546875 C 304.746094 258.292969 304.257812 258.160156 303.761719 258.160156 Z M 303.761719 258.160156 "/>
<path style=" stroke:none;fill-rule:nonzero;fill:rgb(100%,100%,100%);fill-opacity:1;" d="M 219.289062 323.910156 C 225.121094 323.910156 229.847656 318.800781 229.847656 312.5 C 229.847656 306.199219 225.121094 301.089844 219.289062 301.089844 C 213.453125 301.089844 208.726562 306.199219 208.726562 312.5 C 208.726562 318.800781 213.453125 323.910156 219.289062 323.910156 Z M 219.289062 323.910156 "/>
<path style=" stroke:none;fill-rule:nonzero;fill:rgb(24.705882%,23.921569%,33.725491%);fill-opacity:1;" d="M 1017.710938 378.941406 L 989.503906 348.851562 C 988.125 347.375 986.496094 346.207031 984.707031 345.410156 C 982.910156 344.617188 980.992188 344.210938 979.050781 344.21875 L 978.953125 344.21875 C 977 344.226562 975.074219 344.652344 973.269531 345.46875 C 971.472656 346.289062 969.84375 347.480469 968.476562 348.984375 C 962.164062 355.882812 958.574219 365.152344 958.460938 374.84375 C 958.355469 384.539062 961.71875 393.90625 967.867188 400.972656 C 968.160156 401.320312 968.476562 401.652344 968.78125 401.988281 C 970.5 403.832031 972.390625 405.46875 974.429688 406.875 C 980.007812 410.765625 986.511719 412.824219 993.15625 412.800781 L 993.363281 412.800781 C 997.921875 412.785156 1002.429688 411.792969 1006.632812 409.882812 C 1010.835938 407.96875 1014.644531 405.179688 1017.835938 401.667969 C 1020.605469 398.632812 1022.148438 394.535156 1022.125 390.277344 C 1022.097656 386.015625 1020.511719 381.9375 1017.710938 378.941406 Z M 1016.074219 399.78125 C 1010.835938 405.480469 1003.9375 409.054688 996.546875 409.902344 C 989.152344 410.753906 981.71875 408.820312 975.484375 404.4375 C 973.707031 403.164062 972.042969 401.707031 970.515625 400.085938 C 964.441406 393.601562 960.996094 384.773438 960.945312 375.542969 C 960.882812 366.3125 964.230469 357.441406 970.238281 350.871094 C 971.371094 349.617188 972.738281 348.617188 974.238281 347.933594 C 975.738281 347.253906 977.351562 346.898438 978.980469 346.898438 L 979.050781 346.898438 C 980.671875 346.890625 982.265625 347.230469 983.757812 347.890625 C 985.25 348.550781 986.609375 349.523438 987.75 350.753906 L 1015.96875 380.851562 C 1018.296875 383.347656 1019.621094 386.742188 1019.648438 390.292969 C 1019.664062 393.839844 1018.382812 397.253906 1016.074219 399.78125 Z M 1016.074219 399.78125 "/>
<path style=" stroke:none;fill-rule:nonzero;fill:rgb(24.705882%,23.921569%,33.725491%);fill-opacity:1;" d="M 925.140625 280.191406 L 896.929688 250.089844 C 894.160156 247.113281 890.402344 245.445312 886.488281 245.457031 L 886.398438 245.457031 C 884.449219 245.464844 882.511719 245.890625 880.707031 246.710938 C 878.910156 247.53125 877.273438 248.730469 875.902344 250.234375 C 870.691406 255.957031 867.308594 263.332031 866.257812 271.28125 C 865.203125 279.226562 866.535156 287.332031 870.058594 294.402344 L 870.070312 294.417969 C 871.523438 297.308594 873.324219 299.980469 875.433594 302.355469 C 875.667969 302.648438 875.9375 302.941406 876.21875 303.238281 C 882.695312 310.183594 891.457031 314.074219 900.582031 314.050781 L 900.808594 314.050781 C 905.371094 314.03125 909.875 313.035156 914.078125 311.121094 C 918.28125 309.207031 922.089844 306.414062 925.28125 302.902344 C 926.648438 301.402344 927.738281 299.625 928.472656 297.667969 C 929.210938 295.714844 929.578125 293.625 929.570312 291.515625 C 929.550781 289.40625 929.160156 287.320312 928.402344 285.378906 C 927.644531 283.433594 926.535156 281.671875 925.140625 280.191406 Z M 923.511719 301.027344 C 920.546875 304.289062 917.007812 306.878906 913.109375 308.65625 C 909.214844 310.433594 905.03125 311.355469 900.800781 311.375 L 900.582031 311.375 C 894.238281 311.371094 888.019531 309.339844 882.738281 305.535156 C 877.445312 301.730469 873.324219 296.320312 870.871094 289.988281 C 868.421875 283.65625 867.761719 276.679688 868.972656 269.941406 C 870.183594 263.207031 873.210938 257.003906 877.671875 252.121094 C 879.984375 249.601562 883.132812 248.167969 886.417969 248.148438 C 889.695312 248.125 892.859375 249.511719 895.195312 252 L 923.40625 282.089844 C 925.742188 284.589844 927.066406 287.988281 927.085938 291.539062 C 927.101562 295.085938 925.820312 298.5 923.511719 301.027344 Z M 923.511719 301.027344 "/>
<path style=" stroke:none;fill-rule:nonzero;fill:rgb(16.862746%,47.058824%,89.411765%);fill-opacity:1;" d="M 1019.515625 388.398438 L 988.414062 355.214844 C 986.371094 353.042969 983.617188 351.835938 980.757812 351.855469 C 977.890625 351.871094 975.152344 353.117188 973.140625 355.316406 C 970.621094 358.066406 968.625 361.328125 967.273438 364.910156 C 965.921875 368.492188 965.234375 372.328125 965.25 376.199219 C 965.277344 380.066406 966 383.894531 967.386719 387.460938 C 968.78125 391.027344 970.804688 394.261719 973.359375 396.980469 C 975.902344 399.699219 978.929688 401.851562 982.242188 403.308594 C 985.5625 404.765625 989.109375 405.503906 992.691406 405.476562 C 996.277344 405.449219 999.816406 404.664062 1003.121094 403.15625 C 1006.414062 401.648438 1009.414062 399.457031 1011.925781 396.699219 Z M 1019.515625 388.398438 "/>
<path style=" stroke:none;fill-rule:nonzero;fill:rgb(16.862746%,47.058824%,89.411765%);fill-opacity:1;" d="M 926.953125 289.644531 L 895.851562 256.460938 C 893.808594 254.289062 891.054688 253.078125 888.195312 253.097656 C 885.328125 253.117188 882.589844 254.363281 880.578125 256.5625 C 878.058594 259.3125 876.0625 262.570312 874.710938 266.152344 C 873.359375 269.738281 872.667969 273.574219 872.6875 277.441406 C 872.714844 281.3125 873.4375 285.140625 874.824219 288.707031 C 876.21875 292.273438 878.242188 295.507812 880.792969 298.226562 C 883.339844 300.945312 886.363281 303.09375 889.679688 304.554688 C 893 306.011719 896.546875 306.746094 900.128906 306.722656 C 903.714844 306.695312 907.261719 305.90625 910.554688 304.402344 C 913.859375 302.894531 916.851562 300.699219 919.359375 297.945312 Z M 926.953125 289.644531 "/>
<path style=" stroke:none;fill-rule:nonzero;fill:rgb(24.705882%,23.921569%,33.725491%);fill-opacity:1;" d="M 985.335938 409.066406 L 984.59375 411.183594 C 981.097656 409.75 977.714844 408.3125 974.429688 406.875 C 916.34375 381.269531 888.613281 351.300781 870.070312 294.417969 L 870.058594 294.402344 C 869.175781 291.726562 868.324219 288.988281 867.492188 286.1875 L 869.449219 285.503906 C 870.105469 288.199219 871.0625 290.796875 872.304688 293.238281 C 873.316406 296.359375 874.359375 299.398438 875.433594 302.355469 C 892.867188 350.363281 918.578125 377.800781 967.867188 400.972656 C 970.339844 402.136719 972.886719 403.289062 975.484375 404.4375 C 978.507812 406.5625 981.839844 408.128906 985.335938 409.066406 Z M 985.335938 409.066406 "/>
<path style=" stroke:none;fill-rule:nonzero;fill:rgb(24.705882%,23.921569%,33.725491%);fill-opacity:1;" d="M 896.417969 311.617188 L 894.671875 313.519531 L 959.027344 382.179688 L 960.769531 380.273438 Z M 896.417969 311.617188 "/>
<path style=" stroke:none;fill-rule:nonzero;fill:rgb(100%,71.372551%,71.372551%);fill-opacity:1;" d="M 351.59375 254.726562 L 351.625 210.742188 L 327.691406 213.050781 L 336.136719 240.792969 L 305.476562 291.003906 C 303.558594 291.46875 301.808594 292.523438 300.4375 294.046875 C 299.066406 295.566406 298.136719 297.484375 297.753906 299.570312 C 297.378906 301.652344 297.566406 303.808594 298.304688 305.777344 C 299.042969 307.746094 300.292969 309.4375 301.90625 310.652344 C 303.515625 311.863281 305.421875 312.546875 307.386719 312.609375 C 309.351562 312.675781 311.289062 312.121094 312.96875 311.011719 C 314.644531 309.90625 315.988281 308.300781 316.832031 306.382812 C 317.679688 304.46875 317.988281 302.328125 317.730469 300.222656 Z M 351.59375 254.726562 "/>
</g>
</svg>
