<svg width="133" height="52" viewBox="0 0 133 52" fill="none" xmlns="http://www.w3.org/2000/svg">
<path d="M23.044 37.7474L23.0432 43.0033L5.63596 43.0008L5.63678 37.7449L23.044 37.7474ZM7.84226 10.298L7.83713 43.0011L1.09885 43.0002L1.10398 10.297L7.84226 10.298ZM20.7777 23.6192L20.7769 28.7403L5.63819 28.7381L5.639 23.617L20.7777 23.6192ZM23.0259 10.3002L23.025 15.5785L5.64026 15.576L5.64109 10.2977L23.0259 10.3002Z" fill="white"/>
<path d="M23.1385 16.3955L27.0614 23.2319L31.0604 16.3955H36.1068L29.8607 26.5073L36.3544 37H31.308L27.1185 29.8779L22.9291 37H17.8636L24.3382 26.5073L18.1112 16.3955H23.1385ZM50.8651 32.8677V23.0415C50.8651 22.3052 50.7318 21.6704 50.4652 21.1372C50.1986 20.604 49.7923 20.1914 49.2464 19.8994C48.7132 19.6074 48.0404 19.4614 47.2279 19.4614C46.4789 19.4614 45.8314 19.5884 45.2855 19.8423C44.7396 20.0962 44.3143 20.439 44.0096 20.8706C43.7049 21.3022 43.5526 21.791 43.5526 22.3369H38.9823C38.9823 21.5244 39.1791 20.7373 39.5726 19.9756C39.9662 19.2139 40.5375 18.5347 41.2865 17.938C42.0355 17.3413 42.9305 16.8716 43.9715 16.5288C45.0126 16.186 46.1805 16.0146 47.4754 16.0146C49.0243 16.0146 50.3954 16.2749 51.5887 16.7954C52.7948 17.3159 53.7406 18.103 54.4261 19.1567C55.1244 20.1978 55.4735 21.5054 55.4735 23.0796V32.2393C55.4735 33.1787 55.537 34.0229 55.6639 34.772C55.8036 35.5083 56.0003 36.1494 56.2543 36.6953V37H51.5506C51.3348 36.5049 51.1634 35.8765 51.0365 35.1147C50.9222 34.3403 50.8651 33.5913 50.8651 32.8677ZM51.5316 24.4697L51.5697 27.3071H48.2752C47.4247 27.3071 46.6756 27.3896 46.0282 27.5547C45.3807 27.707 44.8412 27.9355 44.4095 28.2402C43.9779 28.5449 43.6542 28.9131 43.4383 29.3447C43.2225 29.7764 43.1146 30.2651 43.1146 30.811C43.1146 31.3569 43.2416 31.8584 43.4955 32.3154C43.7494 32.7598 44.1175 33.1089 44.6 33.3628C45.0951 33.6167 45.6918 33.7437 46.39 33.7437C47.3294 33.7437 48.1483 33.5532 48.8465 33.1724C49.5575 32.7788 50.1161 32.3027 50.5223 31.7441C50.9286 31.1729 51.1444 30.6333 51.1698 30.1255L52.6551 32.1631C52.5028 32.6836 52.2425 33.2422 51.8744 33.8389C51.5062 34.4355 51.0238 35.0068 50.4271 35.5527C49.8431 36.0859 49.1385 36.5239 48.3133 36.8667C47.5008 37.2095 46.5614 37.3809 45.495 37.3809C44.1493 37.3809 42.9496 37.1143 41.8959 36.5811C40.8421 36.0352 40.0169 35.3052 39.4203 34.3911C38.8236 33.4644 38.5252 32.417 38.5252 31.249C38.5252 30.1572 38.7284 29.1924 39.1346 28.3545C39.5536 27.5039 40.1629 26.793 40.9627 26.2217C41.7752 25.6504 42.7655 25.2188 43.9335 24.9268C45.1014 24.6221 46.4344 24.4697 47.9325 24.4697H51.5316ZM64.8617 20.585V37H60.2723V16.3955H64.5951L64.8617 20.585ZM64.119 25.936L62.5575 25.917C62.5575 24.4951 62.7352 23.1812 63.0907 21.9751C63.4461 20.769 63.9667 19.7217 64.6522 18.833C65.3377 17.9316 66.1883 17.2397 67.204 16.7573C68.2323 16.2622 69.4193 16.0146 70.765 16.0146C71.7044 16.0146 72.5614 16.1543 73.3358 16.4336C74.1229 16.7002 74.8021 17.1255 75.3734 17.7095C75.9574 18.2935 76.4017 19.0425 76.7064 19.9565C77.0238 20.8706 77.1825 21.9751 77.1825 23.27V37H72.5931V23.6699C72.5931 22.667 72.4408 21.8799 72.1361 21.3086C71.8441 20.7373 71.4188 20.3311 70.8602 20.0898C70.3143 19.8359 69.6605 19.709 68.8988 19.709C68.0355 19.709 67.2992 19.874 66.6898 20.2041C66.0931 20.5342 65.6044 20.9849 65.2235 21.5562C64.8426 22.1274 64.5633 22.7876 64.3856 23.5366C64.2079 24.2856 64.119 25.0854 64.119 25.936ZM76.8968 24.7173L74.745 25.1934C74.745 23.9492 74.9164 22.7749 75.2591 21.6704C75.6146 20.5532 76.1288 19.5757 76.8016 18.7378C77.4872 17.8872 78.3314 17.2207 79.3343 16.7383C80.3373 16.2559 81.4862 16.0146 82.7811 16.0146C83.8348 16.0146 84.7743 16.1606 85.5995 16.4526C86.4374 16.7319 87.1483 17.1763 87.7323 17.7856C88.3163 18.395 88.7606 19.1885 89.0653 20.166C89.37 21.1309 89.5223 22.2988 89.5223 23.6699V37H84.9139V23.6509C84.9139 22.6099 84.7616 21.8037 84.4569 21.2324C84.1649 20.6611 83.746 20.2676 83.2001 20.0518C82.6542 19.8232 82.0003 19.709 81.2386 19.709C80.5277 19.709 79.8993 19.8423 79.3534 20.1089C78.8202 20.3628 78.3695 20.7246 78.0013 21.1943C77.6332 21.6514 77.3539 22.1782 77.1634 22.7749C76.9857 23.3716 76.8968 24.019 76.8968 24.7173ZM103.328 37.3809C101.805 37.3809 100.428 37.1333 99.1962 36.6382C97.9774 36.1304 96.9364 35.4258 96.0731 34.5244C95.2225 33.623 94.5687 32.563 94.1117 31.3442C93.6546 30.1255 93.4261 28.8115 93.4261 27.4023V26.6406C93.4261 25.0283 93.661 23.5684 94.1307 22.2607C94.6004 20.9531 95.2543 19.8359 96.0921 18.9092C96.93 17.9697 97.9203 17.2524 99.0629 16.7573C100.205 16.2622 101.443 16.0146 102.776 16.0146C104.249 16.0146 105.537 16.2622 106.642 16.7573C107.746 17.2524 108.661 17.9507 109.384 18.8521C110.12 19.7407 110.666 20.8008 111.022 22.0322C111.39 23.2637 111.574 24.6221 111.574 26.1074V28.0688H95.6542V24.7744H107.042V24.4126C107.016 23.5874 106.851 22.813 106.547 22.0894C106.255 21.3657 105.804 20.7817 105.195 20.3374C104.585 19.8931 103.773 19.6709 102.757 19.6709C101.995 19.6709 101.316 19.8359 100.72 20.166C100.136 20.4834 99.6468 20.9468 99.2533 21.5562C98.8597 22.1655 98.555 22.9019 98.3392 23.7651C98.1361 24.6157 98.0345 25.5742 98.0345 26.6406V27.4023C98.0345 28.3037 98.1551 29.1416 98.3963 29.916C98.6503 30.6777 99.0184 31.3442 99.5008 31.9155C99.9833 32.4868 100.567 32.9375 101.253 33.2676C101.938 33.585 102.719 33.7437 103.595 33.7437C104.7 33.7437 105.683 33.5215 106.547 33.0771C107.41 32.6328 108.159 32.0044 108.794 31.1919L111.212 33.5342C110.768 34.1816 110.19 34.8037 109.479 35.4004C108.768 35.9844 107.899 36.4604 106.87 36.8286C105.855 37.1968 104.674 37.3809 103.328 37.3809ZM119.763 20.3184V37H115.173V16.3955H119.553L119.763 20.3184ZM126.066 16.2622L126.028 20.5278C125.748 20.4771 125.444 20.439 125.114 20.4136C124.796 20.3882 124.479 20.3755 124.161 20.3755C123.374 20.3755 122.682 20.4897 122.086 20.7183C121.489 20.9341 120.988 21.2515 120.581 21.6704C120.188 22.0767 119.883 22.5718 119.667 23.1558C119.452 23.7397 119.325 24.3936 119.286 25.1172L118.239 25.1934C118.239 23.8984 118.366 22.6987 118.62 21.5942C118.874 20.4897 119.255 19.5186 119.763 18.6807C120.283 17.8428 120.931 17.189 121.705 16.7192C122.492 16.2495 123.4 16.0146 124.428 16.0146C124.707 16.0146 125.006 16.04 125.323 16.0908C125.653 16.1416 125.901 16.1987 126.066 16.2622Z" fill="#0D0A2C"/>
</svg>
