<svg width="133" height="49" viewBox="0 0 133 49" fill="none" xmlns="http://www.w3.org/2000/svg">
<path d="M23.0465 37.7499L23.0461 43.0058L5.63884 43.0014L5.63931 37.7455L23.0465 37.7499ZM7.84295 10.2988L7.84001 43.002L1.10173 43.0003L1.10467 10.2971L7.84295 10.2988ZM20.7792 23.6214L20.7788 28.7425L5.64012 28.7387L5.64058 23.6176L20.7792 23.6214ZM23.0265 10.3026L23.0261 15.581L5.6413 15.5766L5.64178 10.2983L23.0265 10.3026Z" fill="#4A3AFF"/>
<path d="M23.2119 16.3955L27.1348 23.2319L31.1338 16.3955H36.1802L29.9341 26.5073L36.4277 37H31.3813L27.1919 29.8779L23.0024 37H17.937L24.4116 26.5073L18.1846 16.3955H23.2119ZM50.9385 32.8677V23.0415C50.9385 22.3052 50.8052 21.6704 50.5386 21.1372C50.272 20.604 49.8657 20.1914 49.3198 19.8994C48.7866 19.6074 48.1138 19.4614 47.3013 19.4614C46.5522 19.4614 45.9048 19.5884 45.3589 19.8423C44.813 20.0962 44.3877 20.439 44.083 20.8706C43.7783 21.3022 43.626 21.791 43.626 22.3369H39.0557C39.0557 21.5244 39.2524 20.7373 39.646 19.9756C40.0396 19.2139 40.6108 18.5347 41.3599 17.938C42.1089 17.3413 43.0039 16.8716 44.0449 16.5288C45.0859 16.186 46.2539 16.0146 47.5488 16.0146C49.0977 16.0146 50.4688 16.2749 51.6621 16.7954C52.8682 17.3159 53.814 18.103 54.4995 19.1567C55.1978 20.1978 55.5469 21.5054 55.5469 23.0796V32.2393C55.5469 33.1787 55.6104 34.0229 55.7373 34.772C55.877 35.5083 56.0737 36.1494 56.3276 36.6953V37H51.624C51.4082 36.5049 51.2368 35.8765 51.1099 35.1147C50.9956 34.3403 50.9385 33.5913 50.9385 32.8677ZM51.605 24.4697L51.6431 27.3071H48.3486C47.498 27.3071 46.749 27.3896 46.1016 27.5547C45.4541 27.707 44.9146 27.9355 44.4829 28.2402C44.0513 28.5449 43.7275 28.9131 43.5117 29.3447C43.2959 29.7764 43.188 30.2651 43.188 30.811C43.188 31.3569 43.3149 31.8584 43.5688 32.3154C43.8228 32.7598 44.1909 33.1089 44.6733 33.3628C45.1685 33.6167 45.7651 33.7437 46.4634 33.7437C47.4028 33.7437 48.2217 33.5532 48.9199 33.1724C49.6309 32.7788 50.1895 32.3027 50.5957 31.7441C51.002 31.1729 51.2178 30.6333 51.2432 30.1255L52.7285 32.1631C52.5762 32.6836 52.3159 33.2422 51.9478 33.8389C51.5796 34.4355 51.0972 35.0068 50.5005 35.5527C49.9165 36.0859 49.2119 36.5239 48.3867 36.8667C47.5742 37.2095 46.6348 37.3809 45.5684 37.3809C44.2227 37.3809 43.0229 37.1143 41.9692 36.5811C40.9155 36.0352 40.0903 35.3052 39.4937 34.3911C38.897 33.4644 38.5986 32.417 38.5986 31.249C38.5986 30.1572 38.8018 29.1924 39.208 28.3545C39.627 27.5039 40.2363 26.793 41.0361 26.2217C41.8486 25.6504 42.8389 25.2188 44.0068 24.9268C45.1748 24.6221 46.5078 24.4697 48.0059 24.4697H51.605ZM64.9351 20.585V37H60.3457V16.3955H64.6685L64.9351 20.585ZM64.1924 25.936L62.6309 25.917C62.6309 24.4951 62.8086 23.1812 63.1641 21.9751C63.5195 20.769 64.04 19.7217 64.7256 18.833C65.4111 17.9316 66.2617 17.2397 67.2773 16.7573C68.3057 16.2622 69.4927 16.0146 70.8384 16.0146C71.7778 16.0146 72.6348 16.1543 73.4092 16.4336C74.1963 16.7002 74.8755 17.1255 75.4468 17.7095C76.0308 18.2935 76.4751 19.0425 76.7798 19.9565C77.0972 20.8706 77.2559 21.9751 77.2559 23.27V37H72.6665V23.6699C72.6665 22.667 72.5142 21.8799 72.2095 21.3086C71.9175 20.7373 71.4922 20.3311 70.9336 20.0898C70.3877 19.8359 69.7339 19.709 68.9722 19.709C68.1089 19.709 67.3726 19.874 66.7632 20.2041C66.1665 20.5342 65.6777 20.9849 65.2969 21.5562C64.916 22.1274 64.6367 22.7876 64.459 23.5366C64.2812 24.2856 64.1924 25.0854 64.1924 25.936ZM76.9702 24.7173L74.8184 25.1934C74.8184 23.9492 74.9897 22.7749 75.3325 21.6704C75.688 20.5532 76.2021 19.5757 76.875 18.7378C77.5605 17.8872 78.4048 17.2207 79.4077 16.7383C80.4106 16.2559 81.5596 16.0146 82.8545 16.0146C83.9082 16.0146 84.8477 16.1606 85.6729 16.4526C86.5107 16.7319 87.2217 17.1763 87.8057 17.7856C88.3896 18.395 88.834 19.1885 89.1387 20.166C89.4434 21.1309 89.5957 22.2988 89.5957 23.6699V37H84.9873V23.6509C84.9873 22.6099 84.835 21.8037 84.5303 21.2324C84.2383 20.6611 83.8193 20.2676 83.2734 20.0518C82.7275 19.8232 82.0737 19.709 81.312 19.709C80.6011 19.709 79.9727 19.8423 79.4268 20.1089C78.8936 20.3628 78.4429 20.7246 78.0747 21.1943C77.7065 21.6514 77.4272 22.1782 77.2368 22.7749C77.0591 23.3716 76.9702 24.019 76.9702 24.7173ZM103.402 37.3809C101.878 37.3809 100.501 37.1333 99.2695 36.6382C98.0508 36.1304 97.0098 35.4258 96.1465 34.5244C95.2959 33.623 94.6421 32.563 94.1851 31.3442C93.728 30.1255 93.4995 28.8115 93.4995 27.4023V26.6406C93.4995 25.0283 93.7344 23.5684 94.2041 22.2607C94.6738 20.9531 95.3276 19.8359 96.1655 18.9092C97.0034 17.9697 97.9937 17.2524 99.1362 16.7573C100.279 16.2622 101.517 16.0146 102.85 16.0146C104.322 16.0146 105.611 16.2622 106.715 16.7573C107.82 17.2524 108.734 17.9507 109.458 18.8521C110.194 19.7407 110.74 20.8008 111.095 22.0322C111.463 23.2637 111.647 24.6221 111.647 26.1074V28.0688H95.7275V24.7744H107.115V24.4126C107.09 23.5874 106.925 22.813 106.62 22.0894C106.328 21.3657 105.877 20.7817 105.268 20.3374C104.659 19.8931 103.846 19.6709 102.831 19.6709C102.069 19.6709 101.39 19.8359 100.793 20.166C100.209 20.4834 99.7202 20.9468 99.3267 21.5562C98.9331 22.1655 98.6284 22.9019 98.4126 23.7651C98.2095 24.6157 98.1079 25.5742 98.1079 26.6406V27.4023C98.1079 28.3037 98.2285 29.1416 98.4697 29.916C98.7236 30.6777 99.0918 31.3442 99.5742 31.9155C100.057 32.4868 100.641 32.9375 101.326 33.2676C102.012 33.585 102.792 33.7437 103.668 33.7437C104.773 33.7437 105.757 33.5215 106.62 33.0771C107.483 32.6328 108.232 32.0044 108.867 31.1919L111.286 33.5342C110.841 34.1816 110.264 34.8037 109.553 35.4004C108.842 35.9844 107.972 36.4604 106.944 36.8286C105.928 37.1968 104.748 37.3809 103.402 37.3809ZM119.836 20.3184V37H115.247V16.3955H119.626L119.836 20.3184ZM126.139 16.2622L126.101 20.5278C125.822 20.4771 125.517 20.439 125.187 20.4136C124.87 20.3882 124.552 20.3755 124.235 20.3755C123.448 20.3755 122.756 20.4897 122.159 20.7183C121.562 20.9341 121.061 21.2515 120.655 21.6704C120.261 22.0767 119.957 22.5718 119.741 23.1558C119.525 23.7397 119.398 24.3936 119.36 25.1172L118.312 25.1934C118.312 23.8984 118.439 22.6987 118.693 21.5942C118.947 20.4897 119.328 19.5186 119.836 18.6807C120.356 17.8428 121.004 17.189 121.778 16.7192C122.565 16.2495 123.473 16.0146 124.501 16.0146C124.781 16.0146 125.079 16.04 125.396 16.0908C125.727 16.1416 125.974 16.1987 126.139 16.2622Z" fill="black"/>
</svg>
